<svg width="276" height="276" viewBox="0 0 276 276" fill="none" xmlns="http://www.w3.org/2000/svg">
<circle cx="138" cy="138" r="138" fill="#5B6671"/>
<path d="M127.933 225V94.0909H148.046V225H127.933ZM138.16 72.2727C134.239 72.2727 130.859 70.9375 128.018 68.267C125.234 65.5966 123.842 62.3864 123.842 58.6364C123.842 54.8864 125.234 51.6761 128.018 49.0057C130.859 46.3352 134.239 45 138.16 45C142.08 45 145.433 46.3352 148.217 49.0057C151.058 51.6761 152.478 54.8864 152.478 58.6364C152.478 62.3864 151.058 65.5966 148.217 68.267C145.433 70.9375 142.08 72.2727 138.16 72.2727Z" fill="white"/>
</svg>
