<svg width="555" height="915" viewBox="0 0 555 915" fill="none" xmlns="http://www.w3.org/2000/svg">
<path d="M277.5 30C140.81 30 30 130.924 30 279.964C30 353.995 88.0002 405.983 134.5 497.595C181 589.207 169.5 650.143 169.5 650.143H385.5C385.5 650.143 374 589.207 420.5 497.595C467 405.983 525 353.995 525 279.964C525 130.924 414.191 30 277.5 30Z" stroke="#FF9900" stroke-width="60"/>
<path d="M163 743H391V771C391 833.96 339.96 885 277 885V885C214.04 885 163 833.96 163 771V743Z" stroke="#FF9900" stroke-width="60"/>
<path d="M288 128C350.5 128 410.5 181 410.5 250" stroke="#FF9900" stroke-width="60" stroke-linecap="round"/>
<path d="M400.5 338C387.5 369 358.5 387 354.5 387" stroke="#FF9900" stroke-width="60" stroke-linecap="round"/>
</svg>
