<svg width="40" height="66" viewBox="0 0 40 66" fill="none" xmlns="http://www.w3.org/2000/svg">
<path d="M20 2C10.0589 2 2 9.84961 2 21.4417C2 27.1996 6.21819 31.2431 9.60001 38.3685C12.9818 45.4939 12.1455 50.2334 12.1455 50.2334H27.8545C27.8545 50.2334 27.0182 45.4939 30.4 38.3685C33.7818 31.2431 38 27.1996 38 21.4417C38 9.84961 29.9411 2 20 2Z" stroke="#FF9900" stroke-width="3"/>
<path d="M12 55.5H28.2V60C28.2 62.4853 26.1853 64.5 23.7 64.5H16.5C14.0147 64.5 12 62.4853 12 60V55.5Z" stroke="#FF9900" stroke-width="3"/>
<path d="M22.2549 7.07812C27 8.20656 31 10.8665 32.2367 18.9591" stroke="#FF9900" stroke-width="3" stroke-linecap="round"/>
<path d="M32.3088 22.7313C32.1997 23.6018 31.6397 25.646 30.2725 26.8582" stroke="#FF9900" stroke-width="3" stroke-linecap="round"/>
</svg>
